<?xml version="1.0" standalone="no"?>
<!DOCTYPE svg PUBLIC "-//W3C//DTD SVG 20010904//EN"
 "http://www.w3.org/TR/2001/REC-SVG-20010904/DTD/svg10.dtd">
<svg version="1.0" xmlns="http://www.w3.org/2000/svg"
 width="65.000000pt" height="66.000000pt" viewBox="0 0 65.000000 66.000000"
 preserveAspectRatio="xMidYMid meet">

<g transform="translate(0.000000,66.000000) scale(0.100000,-0.100000)"
fill="#000000" stroke="none">
<path d="M215 634 c-73 -26 -137 -83 -175 -158 -31 -61 -35 -77 -35 -145 0
-67 5 -86 33 -144 21 -43 48 -79 77 -102 47 -39 129 -75 171 -75 22 0 25 4 22
26 -2 23 -10 29 -48 38 -26 7 -62 22 -82 34 -36 22 -88 82 -88 101 0 5 49 38
110 72 106 61 110 64 110 96 l0 34 -42 -25 c-24 -14 -79 -45 -123 -70 l-80
-46 -3 48 c-9 126 75 237 206 272 35 9 42 15 42 35 0 21 -5 25 -27 24 -16 0
-46 -7 -68 -15z"/>
<path d="M340 330 l0 -320 25 0 c25 0 25 0 25 98 l0 97 101 58 102 57 -6 -34
c-8 -48 -34 -101 -69 -138 l-29 -31 20 -21 21 -20 25 24 c14 13 40 53 58 89
27 56 32 76 32 141 0 66 -5 85 -33 143 -21 43 -48 79 -77 102 -47 39 -129 75
-170 75 l-25 0 0 -320z m153 206 c34 -26 87 -111 87 -139 0 -9 -28 -32 -62
-53 -35 -20 -78 -46 -95 -56 l-33 -20 0 161 0 161 35 -14 c19 -8 50 -26 68
-40z"/>
</g>
</svg>
